<svg xmlns="http://www.w3.org/2000/svg" width="1280" height="720" viewBox="0 0 1280 720">
    <defs>
      <filter id="shadow" x="-20%" y="-20%" width="140%" height="140%">
        <feDropShadow dx="0" dy="22" stdDeviation="22" flood-color="#07110d" flood-opacity="0.22"/>
      </filter>
      <linearGradient id="bg" x1="0" y1="0" x2="1" y2="1">
        <stop offset="0%" stop-color="#07110d"/>
        <stop offset="58%" stop-color="#11281d"/>
        <stop offset="100%" stop-color="#f7f4e8"/>
      </linearGradient>
    </defs>
    <rect width="1280" height="720" fill="url(#bg)"/>
    <circle cx="260" cy="90" r="170" fill="#bb7a24" opacity="0.18"/>
    <path d="M0 566 C260 464 426 612 628 496 C804 394 884 210 1280 262 L1280 720 L0 720 Z" fill="#f7f4e8" opacity="0.09"/>
    <rect x="46" y="42" width="52" height="52" rx="26" fill="#f7f4e8"/>
    <text x="72" y="76" text-anchor="middle" font-family="Impact, Arial Black, sans-serif" font-size="27" fill="#07110d">W</text>
    <text x="116" y="74" font-family="Verdana, Arial, sans-serif" font-size="18" font-weight="700" fill="#dce9df" letter-spacing="2">WINGMAN SUITE / AUTOPILOT</text>
    <text x="1168" y="74" font-family="Verdana, Arial, sans-serif" font-size="18" font-weight="700" fill="#dce9df" opacity="0.85">21 / 68</text>
    <g filter="url(#shadow)"><rect x="648" y="92" width="548" height="470" rx="12" fill="#eef0e8" stroke="#cfd4c6"/>
    <rect x="648" y="92" width="548" height="44" rx="12" fill="#10130f"/>
    <circle cx="672" cy="114" r="6" fill="#b14d3a"/><circle cx="692" cy="114" r="6" fill="#bb7a24"/><circle cx="712" cy="114" r="6" fill="#1f7a61"/>
    <text x="740" y="121" font-family="Verdana, Arial, sans-serif" font-size="15" font-weight="700" fill="#f7f4e8">Autopilot / Session</text>
    <rect x="684" y="154" width="476" height="346" rx="8" fill="#07110d"/>
      <text x="716" y="204" font-family="Menlo, Consolas, monospace" font-size="22" fill="#49d49d">$ goal: show Wingman power</text><text x="716" y="256" font-family="Menlo, Consolas, monospace" font-size="22" fill="#dce9df">$ dispatch: worker session</text><text x="716" y="308" font-family="Menlo, Consolas, monospace" font-size="22" fill="#dce9df">$ pipeline: run visual cut</text><text x="716" y="360" font-family="Menlo, Consolas, monospace" font-size="22" fill="#dce9df">$ validate: smoke ok</text><text x="716" y="412" font-family="Menlo, Consolas, monospace" font-size="22" fill="#dce9df">$ handoff: artifact ready</text></g>
    <rect x="54" y="140" width="540" height="430" rx="8" fill="rgba(7,17,13,0.14)"/>
    <text x="72" y="260" font-family="Impact, Arial Black, Arial, sans-serif" font-size="76" font-weight="400" fill="#fbf9ef" letter-spacing="0"><tspan x="72" dy="0">Dispatch a</tspan><tspan x="72" dy="72.2">worker.</tspan></text>
    <text x="76" y="452" font-family="Verdana, Arial Black, Arial, sans-serif" font-size="29" font-weight="700" fill="#dce9df" letter-spacing="0"><tspan x="76" dy="0">Focused repo, focused</tspan><tspan x="76" dy="34.22">outcome.</tspan></text>
    <rect x="72" y="612" width="321.1764705882353" height="8" rx="4" fill="#bb7a24"/>
    <rect x="72" y="612" width="1040" height="8" rx="4" fill="none" stroke="rgba(247,244,232,0.3)"/>
  </svg>