<svg xmlns="http://www.w3.org/2000/svg" width="1280" height="720" viewBox="0 0 1280 720">
    <defs>
      <filter id="shadow" x="-20%" y="-20%" width="140%" height="140%">
        <feDropShadow dx="0" dy="22" stdDeviation="22" flood-color="#07110d" flood-opacity="0.22"/>
      </filter>
      <linearGradient id="bg" x1="0" y1="0" x2="1" y2="1">
        <stop offset="0%" stop-color="#07110d"/>
        <stop offset="58%" stop-color="#11281d"/>
        <stop offset="100%" stop-color="#f7f4e8"/>
      </linearGradient>
    </defs>
    <rect width="1280" height="720" fill="url(#bg)"/>
    <circle cx="260" cy="90" r="170" fill="#6e4b73" opacity="0.18"/>
    <path d="M0 566 C260 464 426 612 628 496 C804 394 884 210 1280 262 L1280 720 L0 720 Z" fill="#f7f4e8" opacity="0.09"/>
    <rect x="46" y="42" width="52" height="52" rx="26" fill="#f7f4e8"/>
    <text x="72" y="76" text-anchor="middle" font-family="Impact, Arial Black, sans-serif" font-size="27" fill="#07110d">W</text>
    <text x="116" y="74" font-family="Verdana, Arial, sans-serif" font-size="18" font-weight="700" fill="#dce9df" letter-spacing="2">WINGMAN SUITE / TOWER</text>
    <text x="1168" y="74" font-family="Verdana, Arial, sans-serif" font-size="18" font-weight="700" fill="#dce9df" opacity="0.85">33 / 68</text>
    <g filter="url(#shadow)"><rect x="660" y="88" width="520" height="486" rx="12" fill="#eef0e8" stroke="#cfd4c6"/>
    <rect x="660" y="88" width="520" height="44" rx="12" fill="#10130f"/>
    <circle cx="684" cy="110" r="6" fill="#b14d3a"/><circle cx="704" cy="110" r="6" fill="#bb7a24"/><circle cx="724" cy="110" r="6" fill="#1f7a61"/>
    <text x="752" y="117" font-family="Verdana, Arial, sans-serif" font-size="15" font-weight="700" fill="#f7f4e8">Review Surface</text>
    <rect x="704" y="158" width="392" height="78" rx="8" fill="#fbf9ef" stroke="#d1d4c8"/>
    <rect x="704" y="158" width="8" height="78" rx="4" fill="#6e4b73"/>
    <text x="728" y="192" font-family="Verdana, Arial, sans-serif" font-size="20" font-weight="700" fill="#10130f">Evidence attached</text>
    <text x="728" y="220" font-family="Verdana, Arial, sans-serif" font-size="15" fill="#555b53">Screenshot, command, artifact.</text>
       <rect x="744" y="260" width="392" height="78" rx="8" fill="#fbf9ef" stroke="#d1d4c8"/>
    <rect x="744" y="260" width="8" height="78" rx="4" fill="#bb7a24"/>
    <text x="768" y="294" font-family="Verdana, Arial, sans-serif" font-size="20" font-weight="700" fill="#10130f">Human approval</text>
    <text x="768" y="322" font-family="Verdana, Arial, sans-serif" font-size="15" fill="#555b53">Approve, revise, or block.</text>
       <rect x="704" y="362" width="392" height="78" rx="8" fill="#fbf9ef" stroke="#d1d4c8"/>
    <rect x="704" y="362" width="8" height="78" rx="4" fill="#1f7a61"/>
    <text x="728" y="396" font-family="Verdana, Arial, sans-serif" font-size="20" font-weight="700" fill="#10130f">Result returned</text>
    <text x="728" y="424" font-family="Verdana, Arial, sans-serif" font-size="15" fill="#555b53">Back to the thread and task.</text></g>
    <rect x="54" y="140" width="540" height="430" rx="8" fill="rgba(7,17,13,0.14)"/>
    <text x="72" y="260" font-family="Impact, Arial Black, Arial, sans-serif" font-size="76" font-weight="400" fill="#fbf9ef" letter-spacing="0"><tspan x="72" dy="0">Docs have</tspan><tspan x="72" dy="72.2">bodies.</tspan></text>
    <text x="76" y="452" font-family="Verdana, Arial Black, Arial, sans-serif" font-size="29" font-weight="700" fill="#dce9df" letter-spacing="0"><tspan x="76" dy="0">Comments have anchors.</tspan></text>
    <rect x="72" y="612" width="504.70588235294116" height="8" rx="4" fill="#6e4b73"/>
    <rect x="72" y="612" width="1040" height="8" rx="4" fill="none" stroke="rgba(247,244,232,0.3)"/>
  </svg>