<svg xmlns="http://www.w3.org/2000/svg" width="1280" height="720" viewBox="0 0 1280 720">
    <defs>
      <filter id="shadow" x="-20%" y="-20%" width="140%" height="140%">
        <feDropShadow dx="0" dy="22" stdDeviation="22" flood-color="#07110d" flood-opacity="0.22"/>
      </filter>
      <linearGradient id="bg" x1="0" y1="0" x2="1" y2="1">
        <stop offset="0%" stop-color="#07110d"/>
        <stop offset="58%" stop-color="#11281d"/>
        <stop offset="100%" stop-color="#f7f4e8"/>
      </linearGradient>
    </defs>
    <rect width="1280" height="720" fill="url(#bg)"/>
    <circle cx="400" cy="166" r="170" fill="#10130f" opacity="0.18"/>
    <path d="M0 566 C260 464 426 612 628 496 C804 394 884 210 1280 262 L1280 720 L0 720 Z" fill="#f7f4e8" opacity="0.09"/>
    <rect x="46" y="42" width="52" height="52" rx="26" fill="#f7f4e8"/>
    <text x="72" y="76" text-anchor="middle" font-family="Impact, Arial Black, sans-serif" font-size="27" fill="#07110d">W</text>
    <text x="116" y="74" font-family="Verdana, Arial, sans-serif" font-size="18" font-weight="700" fill="#dce9df" letter-spacing="2">WINGMAN SUITE / CLOSE</text>
    <text x="1168" y="74" font-family="Verdana, Arial, sans-serif" font-size="18" font-weight="700" fill="#dce9df" opacity="0.85">59 / 68</text>
    <g filter="url(#shadow)"><circle cx="670" cy="250" r="42" fill="#fbf9ef" stroke="#d1d4c8" stroke-width="3"/>
        <text x="670" y="256" text-anchor="middle" font-family="Verdana, Arial, sans-serif" font-size="15" font-weight="700" fill="#10130f">Request</text>
        <path d="M718 250 L734 340" stroke="#10130f" stroke-width="5" fill="none"/><circle cx="782" cy="340" r="42" fill="#fbf9ef" stroke="#d1d4c8" stroke-width="3"/>
        <text x="782" y="346" text-anchor="middle" font-family="Verdana, Arial, sans-serif" font-size="15" font-weight="700" fill="#10130f">Task</text>
        <path d="M830 340 L846 250" stroke="#10130f" stroke-width="5" fill="none"/><circle cx="894" cy="250" r="42" fill="#fbf9ef" stroke="#d1d4c8" stroke-width="3"/>
        <text x="894" y="256" text-anchor="middle" font-family="Verdana, Arial, sans-serif" font-size="15" font-weight="700" fill="#10130f">Agent</text>
        <path d="M942 250 L958 340" stroke="#10130f" stroke-width="5" fill="none"/><circle cx="1006" cy="340" r="42" fill="#10130f" stroke="#d1d4c8" stroke-width="3"/>
        <text x="1006" y="346" text-anchor="middle" font-family="Verdana, Arial, sans-serif" font-size="15" font-weight="700" fill="#fbf9ef">App</text>
        <path d="M1054 340 L1070 250" stroke="#10130f" stroke-width="5" fill="none"/><circle cx="1118" cy="250" r="42" fill="#fbf9ef" stroke="#d1d4c8" stroke-width="3"/>
        <text x="1118" y="256" text-anchor="middle" font-family="Verdana, Arial, sans-serif" font-size="15" font-weight="700" fill="#10130f">Result</text>
        </g>
    <rect x="54" y="140" width="540" height="430" rx="8" fill="rgba(7,17,13,0.14)"/>
    <text x="72" y="260" font-family="Impact, Arial Black, Arial, sans-serif" font-size="76" font-weight="400" fill="#fbf9ef" letter-spacing="0"><tspan x="72" dy="0">One request.</tspan></text>
    <text x="76" y="452" font-family="Verdana, Arial Black, Arial, sans-serif" font-size="29" font-weight="700" fill="#dce9df" letter-spacing="0"><tspan x="76" dy="0">Many coordinated</tspan><tspan x="76" dy="34.22">surfaces.</tspan></text>
    <rect x="72" y="612" width="902.3529411764706" height="8" rx="4" fill="#10130f"/>
    <rect x="72" y="612" width="1040" height="8" rx="4" fill="none" stroke="rgba(247,244,232,0.3)"/>
  </svg>