<svg xmlns="http://www.w3.org/2000/svg" width="1280" height="720" viewBox="0 0 1280 720">
    <defs>
      <filter id="shadow" x="-20%" y="-20%" width="140%" height="140%">
        <feDropShadow dx="0" dy="22" stdDeviation="22" flood-color="#07110d" flood-opacity="0.22"/>
      </filter>
      <linearGradient id="bg" x1="0" y1="0" x2="1" y2="1">
        <stop offset="0%" stop-color="#07110d"/>
        <stop offset="58%" stop-color="#11281d"/>
        <stop offset="100%" stop-color="#f7f4e8"/>
      </linearGradient>
    </defs>
    <rect width="1280" height="720" fill="url(#bg)"/>
    <circle cx="260" cy="166" r="170" fill="#bb7a24" opacity="0.18"/>
    <path d="M0 566 C260 464 426 612 628 496 C804 394 884 210 1280 262 L1280 720 L0 720 Z" fill="#f7f4e8" opacity="0.09"/>
    <rect x="46" y="42" width="52" height="52" rx="26" fill="#f7f4e8"/>
    <text x="72" y="76" text-anchor="middle" font-family="Impact, Arial Black, sans-serif" font-size="27" fill="#07110d">W</text>
    <text x="116" y="74" font-family="Verdana, Arial, sans-serif" font-size="18" font-weight="700" fill="#dce9df" letter-spacing="2">WINGMAN SUITE / AUTOPILOT</text>
    <text x="1168" y="74" font-family="Verdana, Arial, sans-serif" font-size="18" font-weight="700" fill="#dce9df" opacity="0.85">27 / 68</text>
    <g filter="url(#shadow)"><rect x="650" y="82" width="540" height="510" rx="12" fill="#eef0e8" stroke="#cfd4c6"/>
    <rect x="650" y="82" width="540" height="44" rx="12" fill="#10130f"/>
    <circle cx="674" cy="104" r="6" fill="#b14d3a"/><circle cx="694" cy="104" r="6" fill="#bb7a24"/><circle cx="714" cy="104" r="6" fill="#1f7a61"/>
    <text x="742" y="111" font-family="Verdana, Arial, sans-serif" font-size="15" font-weight="700" fill="#f7f4e8">Autopilot / Pipeline</text>
    <rect x="724" y="150" width="332" height="50" rx="25" fill="#ffffff" stroke="#d1d4c8"/>
          <text x="890" y="182" text-anchor="middle" font-family="Verdana, Arial, sans-serif" font-size="18" font-weight="700" fill="#10130f">Trigger</text>
          <path d="M890 204 L890 220" stroke="#bb7a24" stroke-width="4"/><rect x="724" y="222" width="332" height="50" rx="25" fill="#bb7a24" stroke="#d1d4c8"/>
          <text x="890" y="254" text-anchor="middle" font-family="Verdana, Arial, sans-serif" font-size="18" font-weight="700" fill="#fbf9ef">Brief</text>
          <path d="M890 276 L890 292" stroke="#bb7a24" stroke-width="4"/><rect x="724" y="294" width="332" height="50" rx="25" fill="#ffffff" stroke="#d1d4c8"/>
          <text x="890" y="326" text-anchor="middle" font-family="Verdana, Arial, sans-serif" font-size="18" font-weight="700" fill="#10130f">Agent</text>
          <path d="M890 348 L890 364" stroke="#bb7a24" stroke-width="4"/><rect x="724" y="366" width="332" height="50" rx="25" fill="#ffffff" stroke="#d1d4c8"/>
          <text x="890" y="398" text-anchor="middle" font-family="Verdana, Arial, sans-serif" font-size="18" font-weight="700" fill="#10130f">Validate</text>
          <path d="M890 420 L890 436" stroke="#bb7a24" stroke-width="4"/><rect x="724" y="438" width="332" height="50" rx="25" fill="#ffffff" stroke="#d1d4c8"/>
          <text x="890" y="470" text-anchor="middle" font-family="Verdana, Arial, sans-serif" font-size="18" font-weight="700" fill="#10130f">Report</text>
          </g>
    <rect x="54" y="140" width="540" height="430" rx="8" fill="rgba(7,17,13,0.14)"/>
    <text x="72" y="260" font-family="Impact, Arial Black, Arial, sans-serif" font-size="62" font-weight="400" fill="#fbf9ef" letter-spacing="0"><tspan x="72" dy="0">Autopilot makes</tspan><tspan x="72" dy="58.9">AI repeatable.</tspan></text>
    <text x="76" y="452" font-family="Verdana, Arial Black, Arial, sans-serif" font-size="29" font-weight="700" fill="#dce9df" letter-spacing="0"><tspan x="76" dy="0">The work can run</tspan><tspan x="76" dy="34.22">again.</tspan></text>
    <rect x="72" y="612" width="412.94117647058823" height="8" rx="4" fill="#bb7a24"/>
    <rect x="72" y="612" width="1040" height="8" rx="4" fill="none" stroke="rgba(247,244,232,0.3)"/>
  </svg>