<svg xmlns="http://www.w3.org/2000/svg" width="1280" height="720" viewBox="0 0 1280 720">
    <defs>
      <filter id="shadow" x="-20%" y="-20%" width="140%" height="140%">
        <feDropShadow dx="0" dy="22" stdDeviation="22" flood-color="#07110d" flood-opacity="0.22"/>
      </filter>
      <linearGradient id="bg" x1="0" y1="0" x2="1" y2="1">
        <stop offset="0%" stop-color="#07110d"/>
        <stop offset="58%" stop-color="#11281d"/>
        <stop offset="100%" stop-color="#f7f4e8"/>
      </linearGradient>
    </defs>
    <rect width="1280" height="720" fill="url(#bg)"/>
    <circle cx="120" cy="90" r="170" fill="#1f7a61" opacity="0.18"/>
    <path d="M0 566 C260 464 426 612 628 496 C804 394 884 210 1280 262 L1280 720 L0 720 Z" fill="#f7f4e8" opacity="0.09"/>
    <rect x="46" y="42" width="52" height="52" rx="26" fill="#f7f4e8"/>
    <text x="72" y="76" text-anchor="middle" font-family="Impact, Arial Black, sans-serif" font-size="27" fill="#07110d">W</text>
    <text x="116" y="74" font-family="Verdana, Arial, sans-serif" font-size="18" font-weight="700" fill="#dce9df" letter-spacing="2">WINGMAN SUITE / EXAMPLES</text>
    <text x="1168" y="74" font-family="Verdana, Arial, sans-serif" font-size="18" font-weight="700" fill="#dce9df" opacity="0.85">49 / 68</text>
    <g filter="url(#shadow)"><rect x="650" y="82" width="540" height="510" rx="12" fill="#eef0e8" stroke="#cfd4c6"/>
    <rect x="650" y="82" width="540" height="44" rx="12" fill="#10130f"/>
    <circle cx="674" cy="104" r="6" fill="#b14d3a"/><circle cx="694" cy="104" r="6" fill="#bb7a24"/><circle cx="714" cy="104" r="6" fill="#1f7a61"/>
    <text x="742" y="111" font-family="Verdana, Arial, sans-serif" font-size="15" font-weight="700" fill="#f7f4e8">Tower / Graph Memory</text>
    <circle cx="760" cy="210" r="58" fill="#1f7a61" stroke="#d1d4c8" stroke-width="3"/>
          <text x="760" y="216" text-anchor="middle" font-family="Verdana, Arial, sans-serif" font-size="16" font-weight="700" fill="#fbf9ef">Pete</text><circle cx="935" cy="170" r="42" fill="#fbf9ef" stroke="#d1d4c8" stroke-width="3"/>
          <text x="935" y="176" text-anchor="middle" font-family="Verdana, Arial, sans-serif" font-size="16" font-weight="700" fill="#10130f">Wingman</text><circle cx="1034" cy="288" r="42" fill="#fbf9ef" stroke="#d1d4c8" stroke-width="3"/>
          <text x="1034" y="294" text-anchor="middle" font-family="Verdana, Arial, sans-serif" font-size="16" font-weight="700" fill="#10130f">Task</text><circle cx="906" cy="412" r="42" fill="#fbf9ef" stroke="#d1d4c8" stroke-width="3"/>
          <text x="906" y="418" text-anchor="middle" font-family="Verdana, Arial, sans-serif" font-size="16" font-weight="700" fill="#10130f">Repo</text><circle cx="732" cy="390" r="42" fill="#fbf9ef" stroke="#d1d4c8" stroke-width="3"/>
          <text x="732" y="396" text-anchor="middle" font-family="Verdana, Arial, sans-serif" font-size="16" font-weight="700" fill="#10130f">Artifact</text><circle cx="814" cy="300" r="42" fill="#fbf9ef" stroke="#d1d4c8" stroke-width="3"/>
          <text x="814" y="306" text-anchor="middle" font-family="Verdana, Arial, sans-serif" font-size="16" font-weight="700" fill="#10130f">Client</text>
      <path d="M760 210 L935 170 L1034 288 L906 412 L732 390 L814 300 L935 170 M814 300 L1034 288" stroke="#1f7a61" stroke-width="4" opacity="0.7" fill="none"/></g>
    <rect x="54" y="140" width="540" height="430" rx="8" fill="rgba(7,17,13,0.14)"/>
    <text x="72" y="260" font-family="Impact, Arial Black, Arial, sans-serif" font-size="76" font-weight="400" fill="#fbf9ef" letter-spacing="0"><tspan x="72" dy="0">A lead comes in.</tspan></text>
    <text x="76" y="452" font-family="Verdana, Arial Black, Arial, sans-serif" font-size="29" font-weight="700" fill="#dce9df" letter-spacing="0"><tspan x="76" dy="0">Kindling starts</tspan><tspan x="76" dy="34.22">research.</tspan></text>
    <rect x="72" y="612" width="749.4117647058823" height="8" rx="4" fill="#1f7a61"/>
    <rect x="72" y="612" width="1040" height="8" rx="4" fill="none" stroke="rgba(247,244,232,0.3)"/>
  </svg>