<svg xmlns="http://www.w3.org/2000/svg" width="1280" height="720" viewBox="0 0 1280 720">
    <defs>
      <filter id="shadow" x="-20%" y="-20%" width="140%" height="140%">
        <feDropShadow dx="0" dy="22" stdDeviation="22" flood-color="#07110d" flood-opacity="0.22"/>
      </filter>
      <linearGradient id="bg" x1="0" y1="0" x2="1" y2="1">
        <stop offset="0%" stop-color="#07110d"/>
        <stop offset="58%" stop-color="#11281d"/>
        <stop offset="100%" stop-color="#f7f4e8"/>
      </linearGradient>
    </defs>
    <rect width="1280" height="720" fill="url(#bg)"/>
    <circle cx="260" cy="90" r="170" fill="#315f9b" opacity="0.18"/>
    <path d="M0 566 C260 464 426 612 628 496 C804 394 884 210 1280 262 L1280 720 L0 720 Z" fill="#f7f4e8" opacity="0.09"/>
    <rect x="46" y="42" width="52" height="52" rx="26" fill="#f7f4e8"/>
    <text x="72" y="76" text-anchor="middle" font-family="Impact, Arial Black, sans-serif" font-size="27" fill="#07110d">W</text>
    <text x="116" y="74" font-family="Verdana, Arial, sans-serif" font-size="18" font-weight="700" fill="#dce9df" letter-spacing="2">WINGMAN SUITE / FLIGHT DECK</text>
    <text x="1168" y="74" font-family="Verdana, Arial, sans-serif" font-size="18" font-weight="700" fill="#dce9df" opacity="0.85">09 / 68</text>
    <g filter="url(#shadow)"><rect x="650" y="82" width="540" height="510" rx="12" fill="#eef0e8" stroke="#cfd4c6"/>
    <rect x="650" y="82" width="540" height="44" rx="12" fill="#10130f"/>
    <circle cx="674" cy="104" r="6" fill="#b14d3a"/><circle cx="694" cy="104" r="6" fill="#bb7a24"/><circle cx="714" cy="104" r="6" fill="#1f7a61"/>
    <text x="742" y="111" font-family="Verdana, Arial, sans-serif" font-size="15" font-weight="700" fill="#f7f4e8">Flight Deck / Task Board</text>
    <rect x="680" y="150" width="146" height="378" rx="8" fill="#ffffff" stroke="#d1d4c8"/>
          <text x="694" y="180" font-family="Verdana, Arial, sans-serif" font-size="16" font-weight="700" fill="#10130f">Ready</text>
          <rect x="692" y="204" width="122" height="74" rx="8" fill="#fbf9ef" stroke="#d1d4c8"/>
    <rect x="692" y="204" width="8" height="74" rx="4" fill="#315f9b"/>
    <text x="716" y="238" font-family="Verdana, Arial, sans-serif" font-size="20" font-weight="700" fill="#10130f">Lead brief</text>
    <text x="716" y="266" font-family="Verdana, Arial, sans-serif" font-size="15" fill="#555b53">Context</text>
          <rect x="692" y="294" width="122" height="74" rx="8" fill="#fbf9ef" stroke="#d1d4c8"/>
    <rect x="692" y="294" width="8" height="74" rx="4" fill="#315f9b"/>
    <text x="716" y="328" font-family="Verdana, Arial, sans-serif" font-size="20" font-weight="700" fill="#10130f">Approval</text>
    <text x="716" y="356" font-family="Verdana, Arial, sans-serif" font-size="15" fill="#555b53">Human gate</text><rect x="846" y="150" width="146" height="378" rx="8" fill="#ffffff" stroke="#d1d4c8"/>
          <text x="860" y="180" font-family="Verdana, Arial, sans-serif" font-size="16" font-weight="700" fill="#10130f">Doing</text>
          <rect x="858" y="204" width="122" height="74" rx="8" fill="#fbf9ef" stroke="#d1d4c8"/>
    <rect x="858" y="204" width="8" height="74" rx="4" fill="#bb7a24"/>
    <text x="882" y="238" font-family="Verdana, Arial, sans-serif" font-size="20" font-weight="700" fill="#10130f">Worker run</text>
    <text x="882" y="266" font-family="Verdana, Arial, sans-serif" font-size="15" fill="#555b53">Validation</text>
          <rect x="858" y="294" width="122" height="74" rx="8" fill="#fbf9ef" stroke="#d1d4c8"/>
    <rect x="858" y="294" width="8" height="74" rx="4" fill="#315f9b"/>
    <text x="882" y="328" font-family="Verdana, Arial, sans-serif" font-size="20" font-weight="700" fill="#10130f">Fix</text>
    <text x="882" y="356" font-family="Verdana, Arial, sans-serif" font-size="15" fill="#555b53">Patch</text><rect x="1012" y="150" width="146" height="378" rx="8" fill="#ffffff" stroke="#d1d4c8"/>
          <text x="1026" y="180" font-family="Verdana, Arial, sans-serif" font-size="16" font-weight="700" fill="#10130f">Review</text>
          <rect x="1024" y="204" width="122" height="74" rx="8" fill="#fbf9ef" stroke="#d1d4c8"/>
    <rect x="1024" y="204" width="8" height="74" rx="4" fill="#1f7a61"/>
    <text x="1048" y="238" font-family="Verdana, Arial, sans-serif" font-size="20" font-weight="700" fill="#10130f">Artifact v2</text>
    <text x="1048" y="266" font-family="Verdana, Arial, sans-serif" font-size="15" fill="#555b53">Feedback</text>
          <rect x="1024" y="294" width="122" height="74" rx="8" fill="#fbf9ef" stroke="#d1d4c8"/>
    <rect x="1024" y="294" width="8" height="74" rx="4" fill="#315f9b"/>
    <text x="1048" y="328" font-family="Verdana, Arial, sans-serif" font-size="20" font-weight="700" fill="#10130f">Ship</text>
    <text x="1048" y="356" font-family="Verdana, Arial, sans-serif" font-size="15" fill="#555b53">Handoff</text></g>
    <rect x="54" y="140" width="540" height="430" rx="8" fill="rgba(7,17,13,0.14)"/>
    <text x="72" y="260" font-family="Impact, Arial Black, Arial, sans-serif" font-size="62" font-weight="400" fill="#fbf9ef" letter-spacing="0"><tspan x="72" dy="0">Flight Deck is</tspan><tspan x="72" dy="58.9">the cockpit.</tspan></text>
    <text x="76" y="452" font-family="Verdana, Arial Black, Arial, sans-serif" font-size="29" font-weight="700" fill="#dce9df" letter-spacing="0"><tspan x="76" dy="0">Humans and agents</tspan><tspan x="76" dy="34.22">share one surface.</tspan></text>
    <rect x="72" y="612" width="137.64705882352942" height="8" rx="4" fill="#315f9b"/>
    <rect x="72" y="612" width="1040" height="8" rx="4" fill="none" stroke="rgba(247,244,232,0.3)"/>
  </svg>