<svg xmlns="http://www.w3.org/2000/svg" width="1280" height="720" viewBox="0 0 1280 720">
    <defs>
      <filter id="shadow" x="-20%" y="-20%" width="140%" height="140%">
        <feDropShadow dx="0" dy="22" stdDeviation="22" flood-color="#07110d" flood-opacity="0.22"/>
      </filter>
      <linearGradient id="bg" x1="0" y1="0" x2="1" y2="1">
        <stop offset="0%" stop-color="#07110d"/>
        <stop offset="58%" stop-color="#11281d"/>
        <stop offset="100%" stop-color="#f7f4e8"/>
      </linearGradient>
    </defs>
    <rect width="1280" height="720" fill="url(#bg)"/>
    <circle cx="400" cy="90" r="170" fill="#1f7a61" opacity="0.18"/>
    <path d="M0 566 C260 464 426 612 628 496 C804 394 884 210 1280 262 L1280 720 L0 720 Z" fill="#f7f4e8" opacity="0.09"/>
    <rect x="46" y="42" width="52" height="52" rx="26" fill="#f7f4e8"/>
    <text x="72" y="76" text-anchor="middle" font-family="Impact, Arial Black, sans-serif" font-size="27" fill="#07110d">W</text>
    <text x="116" y="74" font-family="Verdana, Arial, sans-serif" font-size="18" font-weight="700" fill="#dce9df" letter-spacing="2">WINGMAN SUITE / HOOK</text>
    <text x="1168" y="74" font-family="Verdana, Arial, sans-serif" font-size="18" font-weight="700" fill="#dce9df" opacity="0.85">05 / 68</text>
    <g filter="url(#shadow)"><rect x="646" y="76" width="552" height="528" rx="12" fill="#eef0e8" stroke="#cfd4c6"/>
    <rect x="646" y="76" width="552" height="44" rx="12" fill="#10130f"/>
    <circle cx="670" cy="98" r="6" fill="#b14d3a"/><circle cx="690" cy="98" r="6" fill="#bb7a24"/><circle cx="710" cy="98" r="6" fill="#1f7a61"/>
    <text x="738" y="105" font-family="Verdana, Arial, sans-serif" font-size="15" font-weight="700" fill="#f7f4e8">Wingman Apps</text>
    <rect x="682" y="146" width="482" height="82" rx="10" fill="#0d1e16"/>
       <text x="710" y="196" font-family="Verdana, Arial, sans-serif" font-size="24" font-weight="700" fill="#fbf9ef">Client Intake</text>
       <rect x="704" y="260" width="194" height="78" rx="10" fill="#1f7a61" stroke="#d1d4c8"/>
         <text x="724" y="306" font-family="Verdana, Arial, sans-serif" font-size="18" font-weight="700" fill="#fbf9ef">Run pipeline</text><rect x="922" y="260" width="194" height="78" rx="10" fill="#fff" stroke="#d1d4c8"/>
         <text x="942" y="306" font-family="Verdana, Arial, sans-serif" font-size="18" font-weight="700" fill="#10130f">Review evidence</text><rect x="704" y="368" width="194" height="78" rx="10" fill="#fff" stroke="#d1d4c8"/>
         <text x="724" y="414" font-family="Verdana, Arial, sans-serif" font-size="18" font-weight="700" fill="#10130f">Approve draft</text><rect x="922" y="368" width="194" height="78" rx="10" fill="#fff" stroke="#d1d4c8"/>
         <text x="942" y="414" font-family="Verdana, Arial, sans-serif" font-size="18" font-weight="700" fill="#10130f">Send result</text></g>
    <rect x="54" y="140" width="540" height="430" rx="8" fill="rgba(7,17,13,0.14)"/>
    <text x="72" y="260" font-family="Impact, Arial Black, Arial, sans-serif" font-size="76" font-weight="400" fill="#fbf9ef" letter-spacing="0"><tspan x="72" dy="0">Agent -&gt; app.</tspan></text>
    <text x="76" y="452" font-family="Verdana, Arial Black, Arial, sans-serif" font-size="29" font-weight="700" fill="#dce9df" letter-spacing="0"><tspan x="76" dy="0">The right interface</tspan><tspan x="76" dy="34.22">opens.</tspan></text>
    <rect x="72" y="612" width="76.47058823529412" height="8" rx="4" fill="#1f7a61"/>
    <rect x="72" y="612" width="1040" height="8" rx="4" fill="none" stroke="rgba(247,244,232,0.3)"/>
  </svg>