<svg xmlns="http://www.w3.org/2000/svg" width="1280" height="720" viewBox="0 0 1280 720">
    <defs>
      <filter id="shadow" x="-20%" y="-20%" width="140%" height="140%">
        <feDropShadow dx="0" dy="22" stdDeviation="22" flood-color="#07110d" flood-opacity="0.22"/>
      </filter>
      <linearGradient id="bg" x1="0" y1="0" x2="1" y2="1">
        <stop offset="0%" stop-color="#07110d"/>
        <stop offset="58%" stop-color="#11281d"/>
        <stop offset="100%" stop-color="#f7f4e8"/>
      </linearGradient>
    </defs>
    <rect width="1280" height="720" fill="url(#bg)"/>
    <circle cx="120" cy="166" r="170" fill="#1f7a61" opacity="0.18"/>
    <path d="M0 566 C260 464 426 612 628 496 C804 394 884 210 1280 262 L1280 720 L0 720 Z" fill="#f7f4e8" opacity="0.09"/>
    <rect x="46" y="42" width="52" height="52" rx="26" fill="#f7f4e8"/>
    <text x="72" y="76" text-anchor="middle" font-family="Impact, Arial Black, sans-serif" font-size="27" fill="#07110d">W</text>
    <text x="116" y="74" font-family="Verdana, Arial, sans-serif" font-size="18" font-weight="700" fill="#dce9df" letter-spacing="2">WINGMAN SUITE / HOOK</text>
    <text x="1168" y="74" font-family="Verdana, Arial, sans-serif" font-size="18" font-weight="700" fill="#dce9df" opacity="0.85">07 / 68</text>
    <g filter="url(#shadow)"><path d="M760 0 L1280 0 L1280 720 L520 720 Z" fill="#f7f4e8" opacity="0.94"/>
      <path d="M828 112 C1030 86 1170 154 1224 330 C1110 268 950 294 830 422 C724 536 620 596 500 610 C604 472 652 256 828 112 Z" fill="#1f7a61" opacity="0.28"/>
      <rect x="830" y="160" width="188" height="54" rx="8" fill="#0d1e16" stroke="none"/><text x="848" y="194" font-family="Verdana, Arial, sans-serif" font-size="18" font-weight="700" fill="#fbf9ef">Flight Deck</text>
      <rect x="900" y="238" width="188" height="54" rx="8" fill="#1f7a61" stroke="none"/><text x="918" y="272" font-family="Verdana, Arial, sans-serif" font-size="18" font-weight="700" fill="#fbf9ef">Autopilot</text>
      <rect x="830" y="316" width="188" height="54" rx="8" fill="#6e4b73" stroke="none"/><text x="848" y="350" font-family="Verdana, Arial, sans-serif" font-size="18" font-weight="700" fill="#fbf9ef">Tower</text>
      <rect x="900" y="394" width="188" height="54" rx="8" fill="#b14d3a" stroke="none"/><text x="918" y="428" font-family="Verdana, Arial, sans-serif" font-size="18" font-weight="700" fill="#fbf9ef">WApps</text></g>
    <rect x="54" y="140" width="540" height="430" rx="8" fill="rgba(7,17,13,0.14)"/>
    <text x="72" y="260" font-family="Impact, Arial Black, Arial, sans-serif" font-size="76" font-weight="400" fill="#fbf9ef" letter-spacing="0"><tspan x="72" dy="0">This is not a</tspan><tspan x="72" dy="72.2">bot.</tspan></text>
    <text x="76" y="452" font-family="Verdana, Arial Black, Arial, sans-serif" font-size="29" font-weight="700" fill="#dce9df" letter-spacing="0"><tspan x="76" dy="0">It is an operating</tspan><tspan x="76" dy="34.22">layer.</tspan></text>
    <rect x="72" y="612" width="107.05882352941175" height="8" rx="4" fill="#1f7a61"/>
    <rect x="72" y="612" width="1040" height="8" rx="4" fill="none" stroke="rgba(247,244,232,0.3)"/>
  </svg>